<svg id="Layer_1" data-name="Layer 1" xmlns="http://www.w3.org/2000/svg" viewBox="0 0 1280 1280"><defs><style>.cls-1{fill:#f2f2f3;}.cls-2{fill:#f07374;}.cls-3{fill:#fbb06c;}</style></defs><path class="cls-1" d="M563.7,624.22h13.68V628H563.7V640.9H559V611.31h20V615H563.7Zm31.68,13.38-1.16,2.45a9.79,9.79,0,0,1-5.66,1.45c-4,0-7.33-2.31-7.33-6.56,0-5.06,4-7.8,12.65-7.8h1.46v-.56a23,23,0,0,0-.09-2.49c-.13-1.84-1.28-3.13-4-3.13s-4.16,1.55-4.41,4.37h-4.72c.3-5,4-7.8,9.22-7.8,5.88,0,8.19,2.49,8.58,6.35.08.94.13,2.14.13,3.21v8a38.48,38.48,0,0,0,.43,5.79h-4.68Zm0-5.23v-2.1c-5.53-.43-9.14.81-9.14,4.29,0,2.4,1.59,3.51,4.08,3.51C593.24,638.07,595.34,636.06,595.34,632.37Zm30-6.35h-4.76c-.69-3.47-2.53-5.06-5.32-5.06-3.3,0-5.92,2.62-5.92,8.32,0,6.18,2.57,8.79,5.75,8.79,2.7,0,4.63-1.63,5.32-4.72h4.8c-1.07,5.45-5,8.15-10.38,8.15-6,0-10.46-3.77-10.46-11.87,0-7.77,5.06-12.1,11-12.1C621.11,617.53,624.75,621,625.31,626Zm23.58,4.8H632.55c.38,5.45,2.87,7.25,6,7.25a5.18,5.18,0,0,0,5.36-4.54h4.76c-1,5.4-5.32,8-10.29,8-6.09,0-10.68-3.86-10.68-11.92,0-7.2,4.59-12.05,11.15-12.05s10.16,5,10.16,11.41A18.09,18.09,0,0,1,648.89,630.82Zm-16.3-3.3h11.54c-.35-4.2-2.19-6.56-5.49-6.56S633.1,623.15,632.59,627.52ZM690,626.11c0,9.13-5.19,15.39-14.24,15.39s-14.28-6.26-14.28-15.39,5.19-15.4,14.28-15.4S690,616.93,690,626.11Zm-5.06,0c0-7.38-3.43-11.8-9.18-11.8s-9.22,4.42-9.22,11.8,3.43,11.79,9.22,11.79S684.9,633.44,684.9,626.11Zm14.61-9.52v1.71h4.68v3.31h-4.68V640.9h-4.67V621.61h-2.45V618.3h2.45v-1.46c0-.81,0-1.93.08-2.7.39-3.51,2.75-5.57,7-5.57a12.37,12.37,0,0,1,2.61.25v3.52c-2.79-.51-4.67.17-4.93,2.06A17.3,17.3,0,0,0,699.51,616.59ZM573.68,667.52v24.71H565.6V667.52H555.53v-6.28h28.21v6.28Zm36.38,11.14v13.57H602V680c0-.76,0-2.07-.09-3.28-.18-2.29-1.44-3.64-3.86-3.64s-4.23,2.39-4.23,7.82v11.32h-8.08V659h8.08v13l2.16-3a10,10,0,0,1,5.39-1.4c4.94,0,7.86,2.34,8.49,6.52A31.53,31.53,0,0,1,610.06,678.66Zm27.94,3.6H621.3c.4,4,2.15,5.12,4.44,5.12s3.69-1.17,4-3h8c-1.39,5.43-5.88,8.49-12,8.49-6.87,0-12.35-4.09-12.35-12.54,0-7,4.81-12.71,12.8-12.71s12,6.11,12,12.31A21.68,21.68,0,0,1,638,682.26Zm-16.43-5h8.13c-.45-2.82-1.85-4.22-4-4.22S622.1,674.35,621.57,677.31Zm37.23-3.77h13.88v6.29H658.8v12.4h-8.08v-31H674v6.28H658.8Zm42.27,18.69H693v-4l-2.16,3.27a10,10,0,0,1-5.39,1.4c-4.94,0-8-2.79-8.49-6.07a31.53,31.53,0,0,1-.22-4.53v-14h8.08v12.22c0,.76.05,2.07.18,3.28.27,2.29,1.35,3.64,3.91,3.64S693,685,693,681.81V668.24h8.08Zm14.56-9.93c0,.81,0,1.71,0,2.34.18,2.42,1,3,4.76,2.78v5a27.12,27.12,0,0,1-4.76.41c-6,0-7.77-1.85-8-5.53-.09-1.39-.09-2.51-.09-3.86v-10h-3.81v-5h3.81v-6.19h8.09v6.19h5.3v5h-5.3Zm32.16,9.93H739.7v-4l-2.15,3.27a10,10,0,0,1-5.39,1.4c-4.94,0-7.95-2.79-8.49-6.07a31.53,31.53,0,0,1-.22-4.53v-14h8.08v12.22c0,.76.05,2.07.18,3.28.27,2.29,1.35,3.64,3.91,3.64s4.08-2.38,4.08-5.57V668.24h8.09ZM769,667.75v6.6c-6.06-.4-8.26,1.84-8.26,9.07v8.81h-8.09v-24h8.09v4.85l1.71-3.36a6.56,6.56,0,0,1,4.71-2.12A10.94,10.94,0,0,1,769,667.75Zm25.88,14.51H778.16c.4,4,2.15,5.12,4.44,5.12s3.69-1.17,4-3h7.95c-1.39,5.43-5.88,8.49-12,8.49-6.87,0-12.35-4.09-12.35-12.54,0-7,4.81-12.71,12.8-12.71s12,6.11,12,12.31A21.57,21.57,0,0,1,794.87,682.26Zm-16.44-5h8.13c-.45-2.82-1.85-4.22-4-4.22S779,674.35,778.43,677.31Z"/><path class="cls-2" d="M494.7,715.34a38.74,38.74,0,0,1-38.7-38.7V624.79a38.7,38.7,0,1,1,77.4,0v51.85A38.74,38.74,0,0,1,494.7,715.34Zm0-123.7a33.18,33.18,0,0,0-33.14,33.15v51.85a33.14,33.14,0,0,0,66.28,0V624.79A33.18,33.18,0,0,0,494.7,591.64Z"/><polygon class="cls-3" points="501.19 637.72 510.63 647.17 478.77 647.17 488.22 637.72 475.67 625.17 482.14 618.68 494.71 631.25 507.26 618.68 513.73 625.17 501.19 637.72"/><path class="cls-3" d="M494.69,623.21a7.62,7.62,0,1,0-7.61-7.6A7.63,7.63,0,0,0,494.69,623.21Z"/><polygon class="cls-2" points="501.19 663.7 510.63 654.26 478.77 654.26 488.22 663.7 475.67 676.25 482.14 682.75 494.71 670.18 507.26 682.75 513.73 676.25 501.19 663.7"/><path class="cls-2" d="M494.69,678.21a7.62,7.62,0,1,1-7.61,7.61A7.64,7.64,0,0,1,494.69,678.21Z"/></svg>